<svg width="556" height="186" viewBox="0 0 556 186" fill="none" xmlns="http://www.w3.org/2000/svg">
<path d="M59.3372 134.39C80.4381 134.185 100.515 121.483 100.515 101.612C100.515 70.063 18.9793 67.3997 14.4724 35.8509C10.9897 11.882 33.9343 0 57.2886 0C97.6465 0 103.792 19.2571 103.792 19.2571H95.1882C95.1882 19.2571 88.8374 1.6389 55.24 2.25348C40.285 2.45835 21.8474 11.882 21.8474 29.2953C21.8474 62.2782 110.348 62.8928 110.348 100.178C110.348 129.473 75.7262 136.643 57.2886 136.643C19.7988 136.643 9.55566 115.952 9.55566 115.952H18.1599C18.1599 115.952 24.7155 134.799 59.3372 134.39Z" fill="white"/>
<path d="M210.295 4.50698H169.323V134.185H161.333V4.50698H120.361V2.45835H210.295V4.50698Z" fill="white"/>
<path d="M279.412 0C317.107 0 347.631 30.7294 347.631 68.424C347.631 106.119 317.107 136.643 279.412 136.643C241.718 136.643 211.193 106.119 211.193 68.424C211.193 30.7294 241.718 0 279.412 0ZM285.353 132.956C315.468 131.112 341.69 103.66 338.208 68.424C334.93 32.9828 307.478 1.84376 273.062 3.89238C242.947 5.73615 217.134 32.9828 220.617 68.424C223.895 103.66 250.936 135.004 285.353 132.956Z" fill="white"/>
<path d="M388.519 2.45835C432.974 2.45835 440.759 24.3786 440.759 39.9482C440.759 53.674 437.686 79.2818 383.807 79.2818H376.023V134.185H368.033V2.45835H388.519ZM383.807 77.2331C425.394 77.2331 431.13 55.3129 431.335 39.9482C431.54 15.9793 410.849 4.50698 386.471 4.50698H376.023V77.2331H383.807Z" fill="white"/>
<path d="M537.225 134.185L519.197 90.7541H457.534L439.506 134.185H437.252L487.034 13.7258L482.527 2.45835H491.746L546.444 134.185H537.225ZM458.353 88.7054H518.378L488.263 16.389L458.353 88.9103V88.7054Z" fill="white"/>
<path d="M169.504 184.844V167.372H175.195C177.907 167.372 180.129 168.204 181.859 169.868C183.606 171.532 184.48 173.604 184.48 176.083V176.133C184.48 178.612 183.606 180.684 181.859 182.348C180.129 184.012 177.907 184.844 175.195 184.844H169.504ZM175.195 168.146H170.352V184.07H175.22C177.682 184.07 179.696 183.313 181.26 181.799C182.824 180.285 183.606 178.404 183.606 176.158V176.108C183.606 173.862 182.824 171.973 181.26 170.442C179.696 168.911 177.674 168.146 175.195 168.146ZM213.867 184.844V167.372H226.173V168.146H214.716V175.659H225.075V176.432H214.716V184.07H226.298V184.844H213.867ZM261.196 185.094C258.6 185.094 256.278 184.162 254.232 182.298L254.806 181.674C256.669 183.438 258.816 184.32 261.246 184.32C262.743 184.32 263.95 183.962 264.865 183.247C265.78 182.515 266.238 181.591 266.238 180.476V180.426C266.238 179.378 265.855 178.554 265.09 177.955C264.324 177.356 262.91 176.84 260.846 176.408C258.7 175.975 257.169 175.401 256.253 174.685C255.355 173.953 254.906 172.955 254.906 171.69V171.64C254.906 170.375 255.438 169.31 256.503 168.445C257.585 167.563 258.941 167.122 260.572 167.122C262.768 167.122 264.748 167.804 266.512 169.169L265.988 169.843C264.357 168.545 262.535 167.896 260.522 167.896C259.124 167.896 257.976 168.262 257.077 168.994C256.195 169.71 255.754 170.567 255.754 171.565V171.615C255.754 172.647 256.137 173.47 256.902 174.086C257.685 174.702 259.107 175.218 261.171 175.634C263.317 176.066 264.84 176.649 265.739 177.381C266.637 178.113 267.086 179.103 267.086 180.351V180.401C267.086 181.766 266.546 182.889 265.464 183.771C264.382 184.653 262.96 185.094 261.196 185.094ZM296.481 184.844V167.372H297.329V184.844H296.481ZM335.566 185.144C332.903 185.144 330.79 184.287 329.226 182.573C327.662 180.842 326.879 178.704 326.879 176.158V176.108C326.879 173.662 327.678 171.548 329.276 169.768C330.89 167.971 332.97 167.072 335.516 167.072C336.83 167.072 337.962 167.264 338.91 167.646C339.876 168.012 340.807 168.578 341.706 169.344L341.157 169.993C340.308 169.294 339.443 168.761 338.561 168.395C337.696 168.029 336.664 167.846 335.466 167.846C333.203 167.846 331.347 168.661 329.9 170.292C328.469 171.923 327.753 173.853 327.753 176.083V176.133C327.753 178.463 328.46 180.426 329.875 182.024C331.306 183.605 333.211 184.395 335.591 184.395C337.821 184.395 339.809 183.646 341.556 182.148V176.782H335.341V175.958H342.38V182.473C340.45 184.254 338.178 185.144 335.566 185.144ZM372.114 184.844V167.372H372.888L385.668 183.397V167.372H386.492V184.844H385.818L372.938 168.695V184.844H372.114Z" fill="white"/>
</svg>
